<mxfile host="app.diagrams.net" agent="Mozilla/5.0 (Windows NT 10.0; Win64; x64) AppleWebKit/537.36 (KHTML, like Gecko) Chrome/134.0.0.0 Safari/537.36" version="26.1.0">
  <diagram name="Page-1" id="02G36hLifpr6jT9G2HbY">
    <mxGraphModel dx="1050" dy="563" grid="1" gridSize="10" guides="1" tooltips="1" connect="1" arrows="1" fold="1" page="1" pageScale="1" pageWidth="850" pageHeight="1100" math="0" shadow="0">
      <root>
        <mxCell id="0" />
        <mxCell id="1" parent="0" />
        <mxCell id="jFRrUFDPFhi3zLxnQ5n8-12" style="edgeStyle=orthogonalEdgeStyle;rounded=0;orthogonalLoop=1;jettySize=auto;html=1;entryX=0.5;entryY=0;entryDx=0;entryDy=0;" edge="1" parent="1" source="jFRrUFDPFhi3zLxnQ5n8-2" target="jFRrUFDPFhi3zLxnQ5n8-3">
          <mxGeometry relative="1" as="geometry" />
        </mxCell>
        <mxCell id="jFRrUFDPFhi3zLxnQ5n8-13" style="edgeStyle=orthogonalEdgeStyle;rounded=0;orthogonalLoop=1;jettySize=auto;html=1;entryX=0.5;entryY=0;entryDx=0;entryDy=0;" edge="1" parent="1" source="jFRrUFDPFhi3zLxnQ5n8-2" target="jFRrUFDPFhi3zLxnQ5n8-4">
          <mxGeometry relative="1" as="geometry" />
        </mxCell>
        <mxCell id="jFRrUFDPFhi3zLxnQ5n8-2" value="MVC APP" style="ellipse;whiteSpace=wrap;html=1;" vertex="1" parent="1">
          <mxGeometry x="360" y="20" width="130" height="70" as="geometry" />
        </mxCell>
        <mxCell id="jFRrUFDPFhi3zLxnQ5n8-14" style="edgeStyle=orthogonalEdgeStyle;rounded=0;orthogonalLoop=1;jettySize=auto;html=1;entryX=0.5;entryY=0;entryDx=0;entryDy=0;" edge="1" parent="1" source="jFRrUFDPFhi3zLxnQ5n8-3" target="jFRrUFDPFhi3zLxnQ5n8-5">
          <mxGeometry relative="1" as="geometry">
            <Array as="points">
              <mxPoint x="370" y="155" />
            </Array>
          </mxGeometry>
        </mxCell>
        <mxCell id="jFRrUFDPFhi3zLxnQ5n8-15" style="edgeStyle=orthogonalEdgeStyle;rounded=0;orthogonalLoop=1;jettySize=auto;html=1;" edge="1" parent="1" source="jFRrUFDPFhi3zLxnQ5n8-3" target="jFRrUFDPFhi3zLxnQ5n8-7">
          <mxGeometry relative="1" as="geometry">
            <Array as="points">
              <mxPoint x="190" y="165" />
            </Array>
          </mxGeometry>
        </mxCell>
        <mxCell id="jFRrUFDPFhi3zLxnQ5n8-3" value="API Gateway&lt;div&gt;:7777&lt;/div&gt;" style="rounded=1;whiteSpace=wrap;html=1;" vertex="1" parent="1">
          <mxGeometry x="230" y="135" width="120" height="60" as="geometry" />
        </mxCell>
        <mxCell id="jFRrUFDPFhi3zLxnQ5n8-17" style="edgeStyle=orthogonalEdgeStyle;rounded=0;orthogonalLoop=1;jettySize=auto;html=1;entryX=1;entryY=0.5;entryDx=0;entryDy=0;" edge="1" parent="1" source="jFRrUFDPFhi3zLxnQ5n8-4" target="jFRrUFDPFhi3zLxnQ5n8-16">
          <mxGeometry relative="1" as="geometry" />
        </mxCell>
        <mxCell id="jFRrUFDPFhi3zLxnQ5n8-4" value=".net identity&lt;div&gt;:7002&lt;/div&gt;" style="rounded=1;whiteSpace=wrap;html=1;" vertex="1" parent="1">
          <mxGeometry x="590" y="135" width="120" height="60" as="geometry" />
        </mxCell>
        <mxCell id="jFRrUFDPFhi3zLxnQ5n8-18" style="edgeStyle=orthogonalEdgeStyle;rounded=0;orthogonalLoop=1;jettySize=auto;html=1;entryX=0;entryY=0.5;entryDx=0;entryDy=0;" edge="1" parent="1" source="jFRrUFDPFhi3zLxnQ5n8-5" target="jFRrUFDPFhi3zLxnQ5n8-16">
          <mxGeometry relative="1" as="geometry" />
        </mxCell>
        <mxCell id="jFRrUFDPFhi3zLxnQ5n8-5" value="Order&lt;div&gt;:7004&lt;/div&gt;" style="rounded=1;whiteSpace=wrap;html=1;" vertex="1" parent="1">
          <mxGeometry x="310" y="215" width="120" height="60" as="geometry" />
        </mxCell>
        <mxCell id="jFRrUFDPFhi3zLxnQ5n8-19" style="edgeStyle=orthogonalEdgeStyle;rounded=0;orthogonalLoop=1;jettySize=auto;html=1;entryX=0;entryY=1;entryDx=0;entryDy=0;" edge="1" parent="1" source="jFRrUFDPFhi3zLxnQ5n8-7" target="jFRrUFDPFhi3zLxnQ5n8-16">
          <mxGeometry relative="1" as="geometry">
            <Array as="points">
              <mxPoint x="320" y="303" />
              <mxPoint x="320" y="303" />
            </Array>
          </mxGeometry>
        </mxCell>
        <mxCell id="jFRrUFDPFhi3zLxnQ5n8-20" style="edgeStyle=orthogonalEdgeStyle;rounded=0;orthogonalLoop=1;jettySize=auto;html=1;entryX=0.5;entryY=0;entryDx=0;entryDy=0;" edge="1" parent="1" source="jFRrUFDPFhi3zLxnQ5n8-7" target="jFRrUFDPFhi3zLxnQ5n8-9">
          <mxGeometry relative="1" as="geometry" />
        </mxCell>
        <mxCell id="jFRrUFDPFhi3zLxnQ5n8-21" style="edgeStyle=orthogonalEdgeStyle;rounded=0;orthogonalLoop=1;jettySize=auto;html=1;entryX=0.5;entryY=0;entryDx=0;entryDy=0;" edge="1" parent="1" source="jFRrUFDPFhi3zLxnQ5n8-7" target="jFRrUFDPFhi3zLxnQ5n8-8">
          <mxGeometry relative="1" as="geometry" />
        </mxCell>
        <mxCell id="jFRrUFDPFhi3zLxnQ5n8-7" value="Shopping Cart&lt;div&gt;:7003&lt;/div&gt;" style="rounded=1;whiteSpace=wrap;html=1;" vertex="1" parent="1">
          <mxGeometry x="140" y="275" width="120" height="60" as="geometry" />
        </mxCell>
        <mxCell id="jFRrUFDPFhi3zLxnQ5n8-25" style="edgeStyle=orthogonalEdgeStyle;rounded=0;orthogonalLoop=1;jettySize=auto;html=1;entryX=0.5;entryY=1;entryDx=0;entryDy=0;" edge="1" parent="1" source="jFRrUFDPFhi3zLxnQ5n8-8" target="jFRrUFDPFhi3zLxnQ5n8-7">
          <mxGeometry relative="1" as="geometry" />
        </mxCell>
        <mxCell id="jFRrUFDPFhi3zLxnQ5n8-8" value="Coupon&lt;div&gt;:7001&lt;/div&gt;" style="rounded=1;whiteSpace=wrap;html=1;" vertex="1" parent="1">
          <mxGeometry x="210" y="400" width="120" height="60" as="geometry" />
        </mxCell>
        <mxCell id="jFRrUFDPFhi3zLxnQ5n8-24" style="edgeStyle=orthogonalEdgeStyle;rounded=0;orthogonalLoop=1;jettySize=auto;html=1;entryX=0.5;entryY=1;entryDx=0;entryDy=0;" edge="1" parent="1" source="jFRrUFDPFhi3zLxnQ5n8-9" target="jFRrUFDPFhi3zLxnQ5n8-7">
          <mxGeometry relative="1" as="geometry" />
        </mxCell>
        <mxCell id="jFRrUFDPFhi3zLxnQ5n8-9" value="Product&lt;div&gt;:7000&lt;/div&gt;" style="rounded=1;whiteSpace=wrap;html=1;" vertex="1" parent="1">
          <mxGeometry x="40" y="400" width="120" height="60" as="geometry" />
        </mxCell>
        <mxCell id="jFRrUFDPFhi3zLxnQ5n8-16" value="Service Bus" style="ellipse;whiteSpace=wrap;html=1;" vertex="1" parent="1">
          <mxGeometry x="490" y="235" width="140" height="80" as="geometry" />
        </mxCell>
        <mxCell id="jFRrUFDPFhi3zLxnQ5n8-23" style="edgeStyle=orthogonalEdgeStyle;rounded=0;orthogonalLoop=1;jettySize=auto;html=1;entryX=0.5;entryY=1;entryDx=0;entryDy=0;" edge="1" parent="1" source="jFRrUFDPFhi3zLxnQ5n8-22" target="jFRrUFDPFhi3zLxnQ5n8-16">
          <mxGeometry relative="1" as="geometry" />
        </mxCell>
        <mxCell id="jFRrUFDPFhi3zLxnQ5n8-22" value="Email" style="rounded=1;whiteSpace=wrap;html=1;" vertex="1" parent="1">
          <mxGeometry x="620" y="390" width="120" height="60" as="geometry" />
        </mxCell>
      </root>
    </mxGraphModel>
  </diagram>
</mxfile>
